<svg width="27" height="25" viewBox="0 0 27 25" fill="none" xmlns="http://www.w3.org/2000/svg">
<g clip-path="url(#clip0_1_579)">
<path d="M19.4682 20.0382H21.261C21.261 21.122 21.3434 22.2161 21.2353 23.2896C21.1322 24.3118 20.2204 25.0001 19.1694 25.0001C13.4923 25.0001 7.80996 25.0001 2.1328 25.0001C0.911849 24.995 0 24.0704 0 22.8428C0 15.8107 0 8.78379 0 1.75687C0 1.03775 0.278191 0.467579 0.947911 0.169655C1.62793 -0.133407 2.26674 0.0206922 2.80252 0.518946C3.16829 0.8631 3.498 1.24321 3.88952 1.66442C4.27075 1.26376 4.585 0.90933 4.91986 0.575449C5.68231 -0.1745 6.58901 -0.184773 7.36691 0.560039C7.70693 0.888784 8.02118 1.24321 8.42301 1.67469C8.78878 1.27403 9.09273 0.90933 9.42759 0.580585C10.2261 -0.184773 11.0607 -0.18991 11.8643 0.580585C12.1992 0.899057 12.498 1.24835 12.8535 1.62846C13.2089 1.27917 13.5129 0.976106 13.8117 0.673045C14.672 -0.200183 15.5787 -0.215593 16.439 0.637088C16.7533 0.950423 17.0521 1.2843 17.3973 1.65414C17.7733 1.25862 18.0876 0.904193 18.4276 0.575449C18.9634 0.0617853 19.597 -0.138543 20.308 0.159381C21.0292 0.457306 21.2971 1.05316 21.2919 1.8031C21.2868 2.73797 21.2919 3.67284 21.2919 4.60771C21.2919 4.73099 21.2816 4.84913 21.2713 4.98268H19.4631C19.4631 4.51011 19.4631 4.05295 19.4631 3.59579C19.4631 3.13863 19.4631 2.70715 19.4631 2.12671C19.0355 2.55305 18.6852 2.89721 18.34 3.24136C17.6033 3.98104 17.1757 3.9759 16.439 3.24136C16.0372 2.83557 15.6251 2.43491 15.2181 2.02912C15.1975 2.00857 15.1717 2.00343 15.079 1.96234C14.6617 2.39382 14.229 2.85098 13.7911 3.29273C13.178 3.90912 12.6268 3.91426 12.0189 3.303C11.5758 2.85611 11.1534 2.39382 10.6588 1.88015C10.1694 2.38354 9.73669 2.83043 9.29365 3.27218C8.64969 3.9194 8.10361 3.91426 7.45964 3.27218C7.04751 2.85611 6.62507 2.44518 6.20778 2.03425C6.18718 2.01884 6.16142 2.00857 6.06869 1.96748C5.62049 2.42977 5.16199 2.91262 4.68804 3.38519C4.15226 3.92453 3.62679 3.92453 3.09101 3.39546C2.69433 3.00508 2.30796 2.60956 1.84946 2.14726C1.834 2.35786 1.81339 2.47087 1.81339 2.58901C1.81339 9.27177 1.81339 15.9494 1.81339 22.6322C1.81339 23.1407 1.84946 23.1766 2.36462 23.1766C7.87693 23.1766 13.3892 23.1766 18.8964 23.1766C19.4167 23.1766 19.4476 23.1458 19.4476 22.6322C19.4476 21.7692 19.4476 20.9062 19.4476 20.0484L19.4682 20.0382Z" fill="#9BAD0F"/>
<path d="M13.9147 12.5128C13.8323 9.00966 16.8357 5.9585 20.4574 5.99446C24.0738 6.03041 27 8.91206 27 12.5026C27 16.0879 24.0223 19.0775 20.4264 19.0364C16.4803 18.9901 13.8323 15.7489 13.9147 12.5128ZM25.7018 12.5026C25.7018 9.61578 23.3475 7.25807 20.4625 7.2632C17.5673 7.2632 15.182 9.61578 15.1769 12.4718C15.1769 15.4048 17.526 17.7522 20.4677 17.7471C23.3681 17.7419 25.7018 15.4048 25.7018 12.5077V12.5026Z" fill="#9BAD0F"/>
<path d="M10.4115 13.2526C10.396 13.0985 10.3857 12.9752 10.3702 12.8262C9.38627 12.5334 8.43835 12.1893 8.47957 10.8692H9.65415C9.83961 11.6551 10.1951 11.9222 10.8751 11.8297C11.2357 11.7835 11.4779 11.6037 11.5551 11.2493C11.6324 10.8794 11.5551 10.5404 11.1945 10.3504C10.7257 10.1038 10.2414 9.88808 9.76749 9.65693C9.26778 9.41551 8.87625 9.07649 8.73715 8.52173C8.49502 7.56118 8.97413 6.73932 9.97356 6.43112C10.293 6.33353 10.5712 6.24107 10.4681 5.79932H11.1224C10.9781 6.2873 11.3336 6.35921 11.6891 6.48763C12.4258 6.75987 12.7709 7.30949 12.7812 8.18272H11.6221C11.586 8.05944 11.55 7.92588 11.5036 7.79747C11.3697 7.39167 11.0709 7.24785 10.6587 7.26326C10.3136 7.27867 10.0766 7.42763 9.97871 7.77178C9.87053 8.15703 9.92719 8.51146 10.293 8.71692C10.7772 8.98403 11.2924 9.20491 11.7921 9.4566C12.6885 9.90862 13.0182 10.6534 12.74 11.6037C12.5597 12.215 12.1012 12.5232 11.5242 12.6978C11.38 12.744 11.2306 12.7749 11.0812 12.816C11.0657 12.9701 11.0554 13.1087 11.0451 13.2628H10.4218L10.4115 13.2526Z" fill="#9BAD0F"/>
<path d="M11.8798 18.9233V20.3H4.01831V18.9233H11.8849H11.8798Z" fill="#9BAD0F"/>
<path d="M14.0899 16.6889H8.49512V15.2352C9.09786 15.2352 9.68516 15.2352 10.2673 15.2352C11.2049 15.2352 12.1425 15.225 13.075 15.2455C13.2141 15.2455 13.3944 15.3739 13.4716 15.4972C13.6932 15.8619 13.8683 16.2574 14.0847 16.6889H14.0899Z" fill="#9BAD0F"/>
<path d="M4.01831 16.6787V15.261H6.58385V16.6787H4.01831Z" fill="#9BAD0F"/>
<path d="M18.7625 13.5042C19.865 12.667 20.9572 11.8194 22.0596 10.9976C22.4357 10.715 22.8427 10.4685 23.2548 10.2322C23.4094 10.1449 23.6051 10.1346 23.7803 10.0884L23.8576 10.1911C23.7751 10.3606 23.7288 10.5558 23.6103 10.6894C22.1936 12.2458 20.782 13.8073 19.3395 15.338C18.9325 15.7695 18.3401 15.7284 18.031 15.2507C17.521 14.4597 17.0779 13.6224 16.6349 12.7902C16.5576 12.6464 16.6246 12.4255 16.6246 12.2458C16.8204 12.2766 17.0573 12.2458 17.2067 12.3434C17.7374 12.7029 18.2319 13.1087 18.7625 13.5145V13.5042Z" fill="#9BAD0F"/>
</g>
<defs>
<clipPath id="clip0_1_579">
<rect width="27" height="25" fill="white"/>
</clipPath>
</defs>
</svg>
