<svg width="27" height="27" viewBox="0 0 27 27" fill="none" xmlns="http://www.w3.org/2000/svg">
<g clip-path="url(#clip0_1_596)">
<path d="M13.659 1.81442C13.4566 1.82165 13.2109 1.84333 12.9652 1.85056C12.3943 1.86502 11.9751 1.48189 11.9679 0.954175C11.9606 0.412006 12.3437 0.0216448 12.9146 0.00718699C17.3375 -0.0940178 21.0088 1.5108 23.8779 4.87225C25.5257 6.80237 26.5302 9.05056 26.8555 11.559C27.4336 15.9976 26.1472 19.8433 23.0252 23.0602C22.606 23.4867 22.0423 23.5084 21.6665 23.1325C21.2907 22.7638 21.3124 22.1927 21.7315 21.7662C23.3504 20.118 24.4633 18.1879 24.9042 15.918C25.7425 11.5445 24.5211 7.81442 21.2618 4.7855C19.5273 3.18068 17.4459 2.26261 15.1044 1.92285C14.6419 1.85779 14.1649 1.84333 13.6518 1.79996L13.659 1.81442Z" fill="#FF6B6B"/>
<path d="M14.4251 10.7422C14.4251 11.3928 14.4395 12.0434 14.4251 12.6868C14.4179 12.9976 14.5118 13.2145 14.7286 13.4314C16.1885 14.8771 17.6411 16.3374 19.0937 17.7832C19.3683 18.0579 19.5273 18.3687 19.4189 18.7663C19.2455 19.4097 18.4794 19.6554 17.9591 19.2362C17.8218 19.1277 17.7061 18.9904 17.576 18.8675C16.0439 17.335 14.519 15.8024 12.9797 14.2771C12.6906 13.9952 12.5677 13.6771 12.5677 13.2795C12.575 11.7036 12.5677 10.135 12.5677 8.55906C12.5677 7.80726 13.2182 7.33738 13.8614 7.62653C14.2516 7.80726 14.4179 8.13979 14.4179 8.55183C14.4179 9.28196 14.4179 10.0048 14.4179 10.735L14.4251 10.7422Z" fill="#FF6B6B"/>
<path d="M2.21863 9.36866C1.66938 9.36866 1.25744 8.98552 1.25021 8.4795C1.24298 7.95902 1.6766 7.5542 2.25476 7.5542C2.81124 7.5542 3.2304 7.95902 3.21595 8.4795C3.2015 9.00721 2.79678 9.36866 2.21863 9.36866Z" fill="#FF6B6B"/>
<path d="M9.4963 2.16148C9.4963 2.69642 9.09882 3.08678 8.53512 3.09401C7.98587 3.09401 7.55947 2.70365 7.55225 2.17594C7.55225 1.64823 7.96418 1.25064 8.51343 1.24341C9.06991 1.24341 9.48185 1.62654 9.48908 2.16148H9.4963Z" fill="#FF6B6B"/>
<path d="M0 13.5037C0 12.976 0.419165 12.5784 0.968415 12.5784C1.52489 12.5784 1.93683 12.9687 1.93683 13.5037C1.93683 14.0386 1.52489 14.429 0.968415 14.429C0.419165 14.4217 0 14.0314 0 13.5037Z" fill="#FF6B6B"/>
<path d="M9.49628 24.8241C9.49628 25.359 9.09157 25.7494 8.53509 25.7494C7.97861 25.7494 7.56668 25.359 7.55945 24.8313C7.55945 24.3036 7.97139 23.906 8.52786 23.906C9.08434 23.906 9.49628 24.2891 9.49628 24.8241Z" fill="#FF6B6B"/>
<path d="M17.511 24.8241C17.511 24.2964 17.9302 23.906 18.4867 23.906C19.0359 23.906 19.4551 24.3108 19.4478 24.8385C19.4478 25.3662 19.0215 25.7566 18.465 25.7566C17.9085 25.7566 17.5038 25.359 17.5038 24.8241H17.511Z" fill="#FF6B6B"/>
<path d="M13.565 27C13.0086 27 12.5822 26.6096 12.575 26.0892C12.575 25.5687 12.9941 25.1855 13.5578 25.1855C14.1288 25.1855 14.5407 25.5615 14.5407 26.0892C14.5407 26.6096 14.1215 27 13.565 27Z" fill="#FF6B6B"/>
<path d="M2.24753 17.6312C2.81124 17.6312 3.22318 18.0216 3.21595 18.5493C3.20872 19.0698 2.78956 19.4457 2.22585 19.4457C1.6766 19.4457 1.24298 19.0336 1.25021 18.5204C1.25744 17.9999 1.6766 17.624 2.24753 17.6312Z" fill="#FF6B6B"/>
<path d="M4.74095 5.588C4.16279 5.588 3.77253 5.20487 3.77976 4.6627C3.78699 4.13499 4.19893 3.76631 4.77709 3.77354C5.33356 3.77354 5.71659 4.14945 5.71659 4.68439C5.71659 5.22655 5.32634 5.588 4.74095 5.588Z" fill="#FF6B6B"/>
<path d="M4.74817 23.2192C4.17724 23.2192 3.77253 22.8361 3.77976 22.3012C3.77976 21.759 4.18447 21.4048 4.76985 21.4048C5.33356 21.4048 5.71659 21.7735 5.72382 22.3012C5.72382 22.8433 5.33356 23.212 4.7554 23.212L4.74817 23.2192Z" fill="#FF6B6B"/>
</g>
<defs>
<clipPath id="clip0_1_596">
<rect width="27" height="27" fill="white"/>
</clipPath>
</defs>
</svg>
