<svg width="48" height="30" viewBox="0 0 48 30" fill="none" xmlns="http://www.w3.org/2000/svg">
<g clip-path="url(#clip0_1_569)">
<path d="M18.0799 7.13006C18.0199 7.05006 17.9899 7.00006 17.9499 6.96006C17.1299 6.10006 17.2599 5.09006 18.3099 4.53006C19.2399 4.03006 20.2099 4.04006 21.1199 4.60006C22.0499 5.17006 22.1499 6.13006 21.3999 6.92006C21.3499 6.97006 21.2999 7.03006 21.2599 7.08006C22.3099 7.30006 23.3499 7.47006 24.3599 7.75006C30.7099 9.53006 35.4899 15.1001 36.3099 21.6301C36.3699 22.0701 36.3999 22.5101 36.4399 22.9501C36.4999 23.6001 36.2999 23.8101 35.6399 23.8101C31.0399 23.8101 26.4399 23.8101 21.8499 23.8101C15.8599 23.8101 9.85992 23.8101 3.86992 23.8101C3.00992 23.8101 2.85992 23.6901 2.92992 22.8101C3.32992 17.5901 5.61992 13.4001 9.81992 10.2801C12.2099 8.50006 14.9199 7.50006 17.8799 7.17006C17.9399 7.17006 17.9899 7.15006 18.0899 7.12006L18.0799 7.13006ZM18.7999 12.1101C18.7999 11.2401 18.0199 10.6301 17.1099 10.9001C16.0399 11.2201 14.9499 11.5501 13.9599 12.0501C11.5399 13.2701 9.73992 15.1501 8.52992 17.5801C8.16992 18.3001 8.37992 19.0601 9.01992 19.3801C9.65992 19.7001 10.3799 19.4301 10.7699 18.7101C10.8699 18.5301 10.9599 18.3401 11.0599 18.1701C12.5799 15.6001 14.8099 14.0201 17.7099 13.3701C18.3699 13.2201 18.7899 12.7401 18.7999 12.1201V12.1101Z" fill="#F55E66"/>
<path d="M19.75 29.56C13.79 29.56 7.82998 29.56 1.86998 29.56C0.889978 29.56 0.239978 29.1 0.0499777 28.29C-0.210022 27.18 0.589978 26.23 1.78998 26.23C4.49998 26.23 7.20998 26.23 9.91998 26.23C19.11 26.23 28.31 26.23 37.5 26.23C38.62 26.23 39.3 26.78 39.42 27.78C39.52 28.62 38.94 29.4 38.1 29.52C37.87 29.55 37.63 29.55 37.39 29.55C31.51 29.55 25.63 29.55 19.75 29.55V29.56Z" fill="#F55E66"/>
<path d="M41.4101 1.85C41.4101 0.828273 40.5841 0 39.5651 0C38.5461 0 37.7201 0.828273 37.7201 1.85V13.42C37.7201 14.4417 38.5461 15.27 39.5651 15.27C40.5841 15.27 41.4101 14.4417 41.4101 13.42V1.85Z" fill="#F55E66"/>
<path d="M45.3501 9.48004C46.3718 9.48004 47.2001 8.654 47.2001 7.63504C47.2001 6.61607 46.3718 5.79004 45.3501 5.79004L33.7801 5.79004C32.7583 5.79004 31.9301 6.61607 31.9301 7.63504C31.9301 8.654 32.7583 9.48004 33.7801 9.48004H45.3501Z" fill="#F55E66"/>
</g>
<defs>
<clipPath id="clip0_1_569">
<rect width="47.2" height="29.56" fill="white"/>
</clipPath>
</defs>
</svg>
