<svg width="35" height="27" viewBox="0 0 35 27" fill="none" xmlns="http://www.w3.org/2000/svg">
<g clip-path="url(#clip0_1_589)">
<path d="M14.7266 8.79723C14.6777 8.73231 14.6533 8.69173 14.6207 8.65927C13.9528 7.96134 14.0587 7.14168 14.9139 6.68722C15.6714 6.28145 16.4615 6.28957 17.2027 6.74403C17.9602 7.20661 18.0417 7.98569 17.4308 8.62681C17.3901 8.66738 17.3493 8.71608 17.3168 8.75665C18.172 8.93519 19.0191 9.07315 19.8418 9.30039C25.014 10.7449 28.9074 15.2652 29.5753 20.5646C29.6242 20.9217 29.6486 21.2787 29.6812 21.6358C29.7301 22.1633 29.5672 22.3337 29.0296 22.3337C25.2828 22.3337 21.536 22.3337 17.7973 22.3337C12.9184 22.3337 8.03122 22.3337 3.15224 22.3337C2.45175 22.3337 2.32957 22.2364 2.38659 21.5222C2.71239 17.286 4.57765 13.8856 7.99864 11.3536C9.94535 9.90904 12.1527 9.0975 14.5637 8.82969C14.6126 8.82969 14.6533 8.81346 14.7347 8.78911L14.7266 8.79723ZM15.313 12.8387C15.313 12.1327 14.6777 11.6376 13.9365 11.8567C13.065 12.1164 12.1771 12.3842 11.3708 12.79C9.39962 13.7801 7.93348 15.3058 6.94791 17.2778C6.65468 17.8622 6.82573 18.4789 7.34702 18.7386C7.86832 18.9983 8.45477 18.7792 8.77244 18.1949C8.85389 18.0488 8.9272 17.8946 9.00865 17.7567C10.2467 15.671 12.0631 14.3888 14.4252 13.8613C14.9628 13.7395 15.3049 13.35 15.313 12.8468V12.8387Z" fill="#FF9E07"/>
<path d="M16.0868 27C11.2323 27 6.37772 27 1.52317 27C0.724943 27 0.195503 26.6267 0.0407444 25.9694C-0.171031 25.0686 0.480586 24.2976 1.45801 24.2976C3.66537 24.2976 5.87272 24.2976 8.08007 24.2976C15.5655 24.2976 23.0591 24.2976 30.5446 24.2976C31.4568 24.2976 32.0107 24.744 32.1085 25.5555C32.1899 26.2372 31.7175 26.8702 31.0333 26.9676C30.846 26.9919 30.6505 26.9919 30.455 26.9919C25.6656 26.9919 20.8762 26.9919 16.0868 26.9919V27Z" fill="#FF9E07"/>
<path d="M30.9111 1.21731C30.9111 0.54501 30.3641 0 29.6893 0C29.0145 0 28.4675 0.54501 28.4675 1.21731V9.36519C28.4675 10.0375 29.0145 10.5825 29.6893 10.5825C30.3641 10.5825 30.9111 10.0375 30.9111 9.36519V1.21731Z" fill="#FF9E07"/>
<path d="M33.7782 6.51666C34.453 6.51666 35 5.97165 35 5.29934C35 4.62704 34.453 4.08203 33.7782 4.08203L25.6004 4.08203C24.9256 4.08203 24.3786 4.62704 24.3786 5.29934C24.3786 5.97165 24.9256 6.51666 25.6004 6.51666H33.7782Z" fill="#FF9E07"/>
</g>
<defs>
<clipPath id="clip0_1_589">
<rect width="35" height="27" fill="white"/>
</clipPath>
</defs>
</svg>
