<svg width="29" height="31" viewBox="0 0 29 31" fill="none" xmlns="http://www.w3.org/2000/svg">
<g clip-path="url(#clip0_1_613)">
<path d="M13.2941 2.17963C13.25 2.12073 13.228 2.08391 13.1985 2.05446C12.5956 1.4212 12.6912 0.677495 13.4633 0.265144C14.1471 -0.103027 14.8603 -0.0956639 15.5294 0.316688C16.2133 0.736403 16.2868 1.44329 15.7353 2.025C15.6985 2.06182 15.6618 2.106 15.6324 2.14282C16.4044 2.30481 17.1691 2.42999 17.9118 2.63617C22.5809 3.94685 26.0956 8.04828 26.6986 12.8566C26.7427 13.1806 26.7647 13.5046 26.7941 13.8286C26.8383 14.3072 26.6912 14.4618 26.2059 14.4618C22.8236 14.4618 19.4412 14.4618 16.0662 14.4618C11.6618 14.4618 7.25002 14.4618 2.84561 14.4618C2.21325 14.4618 2.10296 14.3735 2.15443 13.7255C2.44855 9.88177 4.13237 6.7965 7.22061 4.49911C8.97796 3.18842 10.9706 2.45208 13.1471 2.20909C13.1912 2.20909 13.228 2.19436 13.3015 2.17227L13.2941 2.17963ZM13.8235 5.84662C13.8235 5.206 13.25 4.75683 12.5809 4.95564C11.7941 5.19127 10.9927 5.43427 10.2647 5.80244C8.48531 6.70077 7.16178 8.0851 6.27208 9.87441C6.00737 10.4046 6.16178 10.9642 6.63237 11.1998C7.10296 11.4355 7.63237 11.2366 7.91914 10.7065C7.99267 10.5739 8.05884 10.434 8.13237 10.3089C9.25002 8.41645 10.8897 7.25303 13.0221 6.77441C13.5074 6.66396 13.8162 6.31051 13.8235 5.85398V5.84662Z" fill="#1482FF"/>
<path d="M12.3897 29.0486C11.1397 29.0486 9.89704 29.056 8.64704 29.0412C8.47792 29.0412 8.25733 28.9308 8.15439 28.7982C6.80145 27.1194 5.46322 25.4258 4.12498 23.7322C3.86763 23.4082 3.88233 23.3051 4.22057 23.0474C4.88233 22.532 5.5441 22.0165 6.20586 21.5011C6.94116 20.9194 7.77204 20.6543 8.70586 20.6543C11.0809 20.6543 13.4632 20.6543 15.8382 20.6543C16.6691 20.6543 17.272 21.1697 17.3309 21.9208C17.397 22.7676 16.8235 23.4303 15.9706 23.445C15.1103 23.4598 14.2426 23.445 13.3823 23.4524C12.7132 23.4598 12.3088 23.8647 12.3382 24.4538C12.3603 24.9177 12.7132 25.3227 13.1765 25.3301C14.25 25.3522 15.3235 25.3595 16.3897 25.3153C16.6544 25.308 16.9412 25.1386 17.1617 24.9619C18.5882 23.8647 19.9853 22.7455 21.4044 21.641C22.1838 21.0298 23.1397 21.1624 23.75 21.9355C24.2206 22.532 24.125 23.5187 23.5 24.0194C21.6544 25.4994 19.8015 26.9721 17.9338 28.4301C17.2794 28.9381 16.5 29.137 15.6691 29.1296C14.5735 29.1296 13.4779 29.1296 12.3823 29.1296C12.3823 29.1001 12.3823 29.0707 12.3823 29.0412L12.3897 29.0486Z" fill="#1482FF"/>
<path d="M14.5221 18.6957C10.1398 18.6957 5.75744 18.6957 1.37509 18.6957C0.654499 18.6957 0.176558 18.357 0.0368524 17.7605C-0.154324 16.9432 0.433911 16.2437 1.31626 16.2437C3.30891 16.2437 5.30156 16.2437 7.29421 16.2437C14.0516 16.2437 20.8163 16.2437 27.5736 16.2437C28.3971 16.2437 28.8971 16.6486 28.9854 17.385C29.0589 18.0035 28.6324 18.5779 28.0148 18.6662C27.8457 18.6883 27.6692 18.6883 27.4927 18.6883C23.1692 18.6883 18.8457 18.6883 14.5221 18.6883V18.6957Z" fill="#1482FF"/>
<path d="M6.89717 29.8881C6.89717 30.2268 5.83835 31.0736 5.57364 30.9926C5.4707 30.9632 5.37511 30.8674 5.30894 30.7864C4.00747 29.1518 2.71335 27.5171 1.41923 25.875C1.18394 25.5731 1.19864 25.4332 1.48541 25.1976C1.72805 24.9988 1.97805 24.8074 2.22805 24.6085C2.44864 24.4318 2.65453 24.4465 2.831 24.6748C4.14717 26.3389 5.4707 28.0031 6.77953 29.6672C6.83835 29.7482 6.87511 29.8439 6.89717 29.8881Z" fill="#1482FF"/>
</g>
<defs>
<clipPath id="clip0_1_613">
<rect width="29" height="31" fill="white"/>
</clipPath>
</defs>
</svg>
