<svg width="39" height="24" viewBox="0 0 39 24" fill="none" xmlns="http://www.w3.org/2000/svg">
<g clip-path="url(#clip0_1_608)">
<path d="M14.6444 6.03811C14.5958 5.97404 14.5715 5.934 14.5391 5.90197C13.8749 5.21328 13.9802 4.40448 14.8307 3.95603C15.5839 3.55563 16.3696 3.56363 17.1067 4.01208C17.8599 4.46854 17.9409 5.23731 17.3335 5.86994C17.293 5.90998 17.2525 5.95803 17.2201 5.99807C18.0705 6.17424 18.9129 6.31038 19.731 6.53461C24.8743 7.96003 28.7459 12.4205 29.4101 17.6497C29.4587 18.0021 29.483 18.3544 29.5154 18.7068C29.564 19.2273 29.402 19.3955 28.8674 19.3955C25.1416 19.3955 21.4157 19.3955 17.6979 19.3955C12.8462 19.3955 7.98642 19.3955 3.1347 19.3955C2.43813 19.3955 2.31664 19.2994 2.37333 18.5947C2.69732 14.4145 4.55215 11.0591 7.95402 8.56063C9.88984 7.13521 12.0849 6.33441 14.4824 6.07014C14.531 6.07014 14.5715 6.05413 14.6525 6.0301L14.6444 6.03811ZM15.2275 10.0261C15.2275 9.3294 14.5958 8.84091 13.8587 9.05713C12.992 9.31338 12.1092 9.57765 11.3073 9.97805C9.34716 10.955 7.88922 12.4605 6.90916 14.4065C6.61757 14.9831 6.78766 15.5917 7.30604 15.8479C7.82442 16.1042 8.4076 15.888 8.72349 15.3114C8.80449 15.1672 8.87738 15.0151 8.95838 14.879C10.1895 12.8209 11.9958 11.5556 14.3447 11.0351C14.8793 10.915 15.2194 10.5306 15.2275 10.0341V10.0261Z" fill="#60BA62"/>
<path d="M15.9969 24.0002C11.1695 24.0002 6.34208 24.0002 1.51466 24.0002C0.720895 24.0002 0.194415 23.6318 0.0405207 22.9831C-0.170071 22.0943 0.477904 21.3335 1.44987 21.3335C3.64488 21.3335 5.8399 21.3335 8.03491 21.3335C15.4785 21.3335 22.9302 21.3335 30.3739 21.3335C31.281 21.3335 31.8318 21.7739 31.929 22.5747C32.01 23.2474 31.5402 23.872 30.8598 23.9681C30.6735 23.9922 30.4791 23.9922 30.2848 23.9922C25.5221 23.9922 20.7595 23.9922 15.9969 23.9922V24.0002Z" fill="#60BA62"/>
<path d="M30.544 10.026C30.2848 9.98597 30.0418 9.87386 29.8312 9.68967L25.3116 5.55754C24.7689 5.06104 24.7365 4.22821 25.2387 3.69968C25.7409 3.16315 26.5832 3.13111 27.1178 3.62761L30.6574 6.87085L36.6917 0.424407C37.1938 -0.11213 38.0362 -0.144162 38.5708 0.352335C39.1135 0.848831 39.1459 1.68166 38.6437 2.21019L31.7103 9.62561C31.4026 9.95394 30.9571 10.0981 30.5359 10.034L30.544 10.026Z" fill="#60BA62"/>
</g>
<defs>
<clipPath id="clip0_1_608">
<rect width="39" height="24" fill="white"/>
</clipPath>
</defs>
</svg>
