<svg width="41" height="20" viewBox="0 0 41 20" fill="none" xmlns="http://www.w3.org/2000/svg">
<g clip-path="url(#clip0_1_618)">
<path d="M7.67056 2.51368C8.29505 -0.317662 8.43803 0.0144601 10.8204 0.0103085C16.3209 0.00408123 21.8215 0.00823276 27.32 0.0103085C28.8424 0.0103085 29.4311 0.587371 29.1704 2.04041C28.302 6.86864 27.381 11.6886 26.4432 16.5064C26.3991 16.7389 26.0164 17.0752 25.7872 17.0793C23.1988 17.1208 20.6104 17.1042 17.9652 17.1042C17.9106 16.8178 17.8664 16.5936 17.8244 16.3673C17.5195 14.7358 16.3945 13.6585 14.9016 13.5734C13.4382 13.4883 11.9285 14.5282 11.5836 16.0788C11.386 16.9652 11.0012 17.179 10.1706 17.1208C9.22864 17.0565 8.28033 17.1084 7.33413 17.1063C5.70036 17.1022 5.27562 16.6351 5.43121 15.0347C5.45014 14.8313 5.43332 14.6258 5.43332 14.2916C5.05694 14.2916 4.68056 14.2833 4.3168 14.2667C4.02453 14.2542 3.50937 14.1919 3.51988 13.6439C3.59138 13.1893 4.03714 13.0544 4.31259 13.0399C5.67512 12.9672 7.04186 12.9901 8.4086 12.9818C9.28541 12.9776 10.1643 13.0274 11.0327 12.9444C11.3103 12.9174 11.7455 12.7597 11.8128 12.3237C11.7455 11.755 11.3229 11.7259 11.039 11.6823C10.3893 11.5848 9.71225 11.647 9.04781 11.647C6.38583 11.647 3.72384 11.645 1.05976 11.6408C0.574041 11.6408 -0.073582 11.7135 0.0084222 11.0202C0.0378596 10.7732 0.695996 10.4307 1.07658 10.4203C3.28228 10.3622 5.49009 10.3891 7.69789 10.3871C7.90816 10.3871 8.13525 10.3788 8.32028 10.3746C8.8081 10.3642 9.1992 10.2002 9.22654 9.72904C9.20761 9.17481 8.66933 9.11877 8.36234 9.08556C7.49604 8.9963 6.60661 9.11462 5.74241 9.01705C5.40388 8.97969 4.7142 9.00252 4.7878 8.35489C4.8698 7.89614 5.41229 7.78197 5.734 7.77367C7.69369 7.71555 9.65758 7.74461 11.6194 7.73423C12.1345 7.73216 12.8263 7.81726 12.7338 7.05546C12.7044 6.80637 12.0357 6.46594 11.6509 6.45556C9.58609 6.39536 7.51706 6.42442 5.45014 6.42235C4.96021 6.42235 4.37357 6.49292 4.36516 5.78301C4.35675 5.03781 4.98545 5.16859 5.45014 5.16443C7.65794 5.15198 9.86364 5.15821 12.0715 5.15821C12.2817 5.15821 12.492 5.16236 12.7023 5.15821C13.2363 5.14783 13.9008 5.17066 13.8167 4.44622C13.7851 4.18675 13.1501 3.91067 12.7464 3.80481C12.3196 3.69479 11.8423 3.7799 11.386 3.7799C8.37285 3.77782 5.35972 3.7799 2.34659 3.76744C1.87139 3.76744 1.20695 3.84425 1.29736 3.14264C1.3289 2.89147 1.98073 2.55312 2.35921 2.53859C4.10443 2.47424 5.85595 2.50953 7.67266 2.50953L7.67056 2.51368ZM15.6039 4.54378C15.6039 3.96464 15.2086 3.85878 14.9815 3.86501C14.7418 3.87331 14.3423 4.21166 14.3297 4.42754C14.315 4.64549 14.6577 5.02743 14.8974 5.07725C15.114 5.12084 15.6039 4.85307 15.6039 4.54378Z" fill="#E279FF"/>
<path d="M36.6202 17.1043C36.2249 14.4577 35.2135 13.2994 33.3989 13.3015C31.6284 13.3015 30.4026 14.6072 29.9463 17.0317H27.114C28.0539 12.0312 28.977 7.11782 29.9169 2.11314C31.7252 2.11314 33.5061 2.06125 35.2808 2.15051C35.7181 2.17334 36.2459 2.57189 36.5403 2.94553C37.9386 4.71615 39.3032 6.51792 40.6048 8.35912C40.8928 8.76805 41.0379 9.39701 40.9853 9.89934C40.7961 11.7198 40.5185 13.5319 40.2242 15.3378C39.9887 16.7847 39.5955 17.0856 38.1383 17.1043C37.6526 17.1106 37.1669 17.1043 36.6181 17.1043H36.6202ZM37.865 7.69903C36.9419 6.36431 36.3616 5.04413 35.3565 4.24288C34.7467 3.75715 33.483 4.06436 32.5116 4.027C32.0931 4.01039 31.6621 3.97511 31.2563 4.05191C30.9976 4.10173 30.6087 4.30308 30.5645 4.4982C30.3332 5.5257 30.1923 6.57189 30.0052 7.69903H37.8671H37.865Z" fill="#E279FF"/>
<path d="M17.4753 16.795C17.4795 18.576 16.138 20.0062 14.4685 20C12.8851 19.9937 11.7413 18.7649 11.7455 17.0752C11.7497 15.371 13.0849 13.9512 14.7061 13.9242C16.2873 13.8993 17.4732 15.1281 17.4753 16.7929V16.795ZM16.1401 16.849C16.117 16.056 15.4378 15.3752 14.664 15.3752C13.7977 15.3752 13.066 16.2034 13.1164 17.1333C13.1627 17.9844 13.7935 18.5698 14.6177 18.5282C15.4735 18.4847 16.1632 17.7229 16.138 16.851L16.1401 16.849Z" fill="#E279FF"/>
<path d="M36.1534 16.5107C36.1723 18.2668 34.8203 19.726 33.1655 19.7385C31.5948 19.7509 30.4004 18.4951 30.4089 16.8407C30.4173 15.122 31.7399 13.6939 33.3505 13.6669C34.9422 13.642 36.1365 14.8542 36.1555 16.5107H36.1534ZM33.319 15.1324C32.4905 15.1407 31.7609 15.8942 31.7525 16.7494C31.7441 17.588 32.4358 18.3041 33.237 18.2896C34.0633 18.273 34.7635 17.532 34.7803 16.656C34.7971 15.7759 34.1705 15.122 33.319 15.1324Z" fill="#E279FF"/>
</g>
<defs>
<clipPath id="clip0_1_618">
<rect width="41" height="20" fill="white"/>
</clipPath>
</defs>
</svg>
