<svg width="13" height="13" viewBox="0 0 13 13" fill="none" xmlns="http://www.w3.org/2000/svg">
<g clip-path="url(#clip0_1_647)">
<path d="M13.0014 6.49522C13.0026 7.78166 12.6222 9.03955 11.9083 10.1097C11.1944 11.1799 10.179 12.0142 8.99076 12.5071C7.80249 12.9999 6.49471 13.1292 5.23293 12.8786C3.97115 12.6279 2.81209 12.0086 1.90244 11.0989C0.992797 10.1893 0.37345 9.03021 0.122787 7.76843C-0.127875 6.50665 0.00141621 5.19887 0.494297 4.0106C0.987178 2.82233 1.82149 1.80698 2.89165 1.09306C3.96181 0.379142 5.21971 -0.00125839 6.50614 3.12754e-06C8.228 0.00253404 9.87862 0.687662 11.0962 1.9052C12.3137 3.12274 12.9988 4.77336 13.0014 6.49522ZM1.08257 6.49522C1.08257 7.56793 1.40076 8.61653 1.99689 9.50834C2.59302 10.4002 3.44029 11.0951 4.43149 11.5052C5.42269 11.9154 6.51328 12.0223 7.56526 11.8124C8.61724 11.6026 9.58333 11.0854 10.3413 10.3263C11.0992 9.56724 11.615 8.60039 11.8233 7.5481C12.0316 6.49581 11.9231 5.40538 11.5115 4.41479C11.0999 3.42419 10.4037 2.57794 9.51104 1.98313C8.61835 1.38831 7.56928 1.07166 6.49657 1.07324C5.05996 1.07535 3.6829 1.64752 2.66781 2.66411C1.65271 3.6807 1.08256 5.0586 1.08257 6.49522Z" fill="#DADADA"/>
<path d="M7.03744 4.70905C7.03744 5.18746 7.03744 5.66587 7.03744 6.15545C7.04135 6.2282 7.07005 6.29742 7.11877 6.35159C7.56528 6.80768 8.01818 7.25898 8.47107 7.71028C8.5785 7.80459 8.64406 7.93772 8.65333 8.08038C8.6626 8.22303 8.61483 8.36352 8.52051 8.47095C8.42619 8.57838 8.29307 8.64394 8.15041 8.65321C8.00776 8.66248 7.86727 8.6147 7.75984 8.52039C7.64024 8.41514 7.5302 8.29553 7.41698 8.18231C7.00076 7.76609 6.58773 7.34828 6.16833 6.93685C6.09924 6.87186 6.04486 6.79284 6.00882 6.7051C5.97279 6.61736 5.95595 6.52293 5.95942 6.42814C5.95942 5.37404 5.95942 4.32154 5.95942 3.26904C5.95438 3.19652 5.96414 3.12374 5.98812 3.05512C6.0121 2.9865 6.04979 2.92347 6.09889 2.86988C6.148 2.81629 6.2075 2.77324 6.27377 2.74337C6.34004 2.7135 6.41169 2.69743 6.48437 2.69613C6.55705 2.69483 6.62923 2.70833 6.69652 2.73581C6.76382 2.7633 6.82482 2.80418 6.87581 2.85599C6.9268 2.90779 6.96672 2.96943 6.99314 3.03715C7.01955 3.10487 7.03191 3.17725 7.02947 3.2499C7.02947 3.73628 7.02947 4.22267 7.02947 4.70905H7.03744Z" fill="#DADADA"/>
</g>
<defs>
<clipPath id="clip0_1_647">
<rect width="13" height="13" fill="white"/>
</clipPath>
</defs>
</svg>
