<svg width="78" height="78" viewBox="0 0 78 78" fill="none" xmlns="http://www.w3.org/2000/svg">
<g filter="url(#filter0_d_1_2566)">
<rect x="10" y="6" width="58" height="58" rx="24" fill="#F55E66"/>
</g>
<path d="M25.9995 36.3243C26.5273 36.2715 27.0374 36.2203 27.5743 36.167C27.996 39.4532 29.4854 42.1176 32.124 44.1091C33.8309 45.3972 35.7648 46.1645 37.8954 46.3214C42.2926 46.6451 45.7714 44.9389 48.444 41.4385C48.0071 41.1087 47.6038 40.8042 47.1476 40.4596C48.506 40.1332 49.8171 39.8186 51.1567 39.4968C51.1034 40.8341 51.0511 42.1389 50.9962 43.5057C50.5512 43.1458 50.1417 42.8154 49.713 42.4693C47.6434 45.2799 44.9053 47.0415 41.494 47.7368C39.0262 48.2398 36.6086 48.0185 34.2688 47.1029C29.6805 45.3073 26.5106 41.1731 25.9995 36.3243Z" fill="white"/>
<path d="M29.7951 28.2869C30.1812 28.6224 30.5561 28.9487 30.9798 29.3172C29.6173 29.5897 28.3092 29.8511 26.9656 30.1195C27.0723 28.7792 27.1754 27.4774 27.2846 26.1086C27.7347 26.471 28.1431 26.7994 28.5709 27.144C30.7553 24.3506 33.5742 22.6383 37.0773 22.1384C39.6239 21.775 42.1004 22.1181 44.4195 23.2478C48.9326 25.4463 51.4268 29.0781 51.9999 34.0756C51.8744 34.0934 51.7931 34.1111 51.7108 34.1157C51.2734 34.1391 50.8355 34.1594 50.3814 34.1817C50.137 31.2559 48.9864 28.763 46.8594 26.7456C45.1297 25.1048 43.0687 24.1111 40.7136 23.7406C35.8597 22.9768 31.7093 25.4844 29.7956 28.2874L29.7951 28.2869Z" fill="white"/>
<path d="M45.4597 34.1986C45.4653 34.2859 45.4709 34.3346 45.4714 34.3838C45.4719 34.8482 45.4714 35.3121 45.4714 35.8079H44.6637V37.4188H43.0599V35.8313H42.2324V37.4198H40.6195V35.8307H38.9756C38.9405 36.5469 38.7399 37.1975 38.306 37.7684C37.507 38.8195 36.1633 39.2864 34.8933 38.9474C33.6411 38.6135 32.6693 37.5441 32.5346 36.25C32.4366 35.31 32.3853 34.3539 32.5926 33.4221C32.9222 31.9366 34.3782 30.8749 35.8971 30.9637C37.4429 31.054 38.7338 32.2426 38.9278 33.754C38.9461 33.8956 38.9649 34.0372 38.9863 34.1986H45.4597ZM37.383 35.0233C37.3764 35.0233 37.3698 35.0228 37.3632 35.0223C37.3632 34.7431 37.3662 34.4645 37.3627 34.1854C37.35 33.2774 36.6286 32.5634 35.7274 32.5639C34.8257 32.5639 34.1013 33.2795 34.0932 34.1854C34.0881 34.7345 34.0881 35.2842 34.0932 35.8333C34.1003 36.6555 34.7231 37.3553 35.5252 37.4492C36.3629 37.5472 37.1483 37.0128 37.3129 36.1825C37.3876 35.8059 37.3637 35.41 37.384 35.0233H37.383Z" fill="white"/>
<defs>
<filter id="filter0_d_1_2566" x="0" y="0" width="78" height="78" filterUnits="userSpaceOnUse" color-interpolation-filters="sRGB">
<feFlood flood-opacity="0" result="BackgroundImageFix"/>
<feColorMatrix in="SourceAlpha" type="matrix" values="0 0 0 0 0 0 0 0 0 0 0 0 0 0 0 0 0 0 127 0" result="hardAlpha"/>
<feOffset dy="4"/>
<feGaussianBlur stdDeviation="5"/>
<feComposite in2="hardAlpha" operator="out"/>
<feColorMatrix type="matrix" values="0 0 0 0 1 0 0 0 0 0.766667 0 0 0 0 0.779029 0 0 0 1 0"/>
<feBlend mode="normal" in2="BackgroundImageFix" result="effect1_dropShadow_1_2566"/>
<feBlend mode="normal" in="SourceGraphic" in2="effect1_dropShadow_1_2566" result="shape"/>
</filter>
</defs>
</svg>
