<svg width="28" height="26" viewBox="0 0 28 26" fill="none" xmlns="http://www.w3.org/2000/svg">
<g clip-path="url(#clip0_1_490)">
<path d="M23.7807 20.7484H4.24735C4.24259 20.6312 4.23306 20.514 4.23306 20.4014C4.23306 18.5868 4.2283 16.7722 4.23306 14.9529C4.23306 14.7185 4.16163 14.62 3.93782 14.5403C1.39973 13.6353 -0.219319 11.1362 0.0235377 8.51506C0.271157 5.87051 2.2664 3.69017 4.8902 3.23066C6.00449 3.03372 7.09973 3.1275 8.15687 3.54013C8.25211 3.57764 8.34735 3.61046 8.44258 3.64328C9.57592 1.34103 11.3759 0 14.0045 0C16.6331 0 18.4378 1.34103 19.5426 3.60108C20.0854 3.4651 20.614 3.29161 21.1569 3.20252C24.214 2.69612 27.2759 4.80144 27.8759 7.80234C28.4616 10.7423 26.8759 13.5228 24.014 14.5591C23.8045 14.6341 23.7807 14.7513 23.7807 14.9295C23.7807 16.7347 23.7807 18.5399 23.7807 20.3499C23.7807 20.4765 23.7807 20.6031 23.7807 20.7484Z" fill="white"/>
<path d="M4.26188 22.563H23.7428C23.7571 22.6286 23.7809 22.6896 23.7809 22.7505C23.7809 23.2616 23.7952 23.768 23.7762 24.2791C23.7381 25.2591 22.9905 25.9859 21.9952 25.9953C19.6333 26.0093 17.2714 26 14.9143 26C11.9905 26 9.06188 26 6.13807 26C5.17617 26 4.39998 25.4514 4.28569 24.5839C4.19998 23.9322 4.26664 23.2569 4.26664 22.5677L4.26188 22.563Z" fill="white"/>
</g>
<defs>
<clipPath id="clip0_1_490">
<rect width="28" height="26" fill="white"/>
</clipPath>
</defs>
</svg>
