<svg width="26" height="26" viewBox="0 0 26 26" fill="none" xmlns="http://www.w3.org/2000/svg">
<g clip-path="url(#clip0_1_485)">
<path d="M1.64863 16.2451C1.64863 16.14 1.64863 16.0569 1.64863 15.9737C1.64863 13.3523 1.64863 10.7265 1.653 8.10503C1.653 7.9256 1.60927 7.82494 1.44748 7.72866C0.450509 7.15098 -0.00425034 6.10066 0.196893 4.88403C0.406782 3.62801 0.883405 2.46827 1.42999 1.33042C1.86726 0.415755 2.61936 0.00437637 3.61634 0.00437637C4.39467 0.00437637 5.17301 0.00437637 5.95135 0.00437637C11.3254 0 16.6994 0 22.0778 0C22.3489 0 22.62 0.0175055 22.8868 0.0568928C23.4246 0.135667 23.8706 0.393873 24.2292 0.805252C25.0687 1.77243 25.9695 4.42888 25.8427 5.70241C25.7553 6.61707 25.3661 7.36543 24.4959 7.79869C24.4303 7.8337 24.3822 7.96936 24.3822 8.05689C24.3779 9.85996 24.3779 11.663 24.3822 13.4617C24.3822 14.2888 24.3822 15.1203 24.3822 15.9475C24.3822 16.0394 24.3822 16.1313 24.3822 16.2144C25.3792 16.3326 26.0001 17.0372 26.0045 18.035C26.0045 18.4989 26.0264 18.9628 25.8121 19.4004C25.576 19.8862 25.2218 20.1969 24.6752 20.2582C24.4566 20.2845 24.2379 20.2976 24.0193 20.2976C16.6994 20.2976 9.37954 20.2976 2.05966 20.2976C1.86726 20.2976 1.67049 20.2888 1.47809 20.2626C0.673516 20.1488 0.223129 19.7637 0.074458 18.954C-0.0392318 18.3282 -0.0392319 17.6937 0.275602 17.0985C0.564199 16.5558 0.966486 16.2057 1.653 16.2319L1.64863 16.2451ZM3.27964 16.2232C3.31899 16.2363 3.33211 16.2451 3.3496 16.2451C4.98936 16.2451 6.62912 16.2451 8.26887 16.2538C8.41317 16.2538 8.45253 16.1794 8.49625 16.07C9.00786 14.8184 9.89114 13.9344 11.1286 13.3961C11.2336 13.3479 11.3385 13.3042 11.4522 13.256C10.3459 11.9256 10.3065 10.6214 11.321 9.63238C12.2218 8.75274 13.6517 8.70022 14.5962 9.5186C15.0903 9.94748 15.3789 10.4902 15.4445 11.1422C15.5275 11.9825 15.1996 12.674 14.5962 13.2298C14.6093 13.2604 14.6136 13.2691 14.618 13.2735C14.688 13.3042 14.7579 13.3304 14.8279 13.361C16.0872 13.8862 16.9968 14.7746 17.5259 16.035C17.5958 16.2057 17.6745 16.2538 17.8538 16.2538C19.4192 16.2451 20.9803 16.2538 22.5457 16.2538C22.6113 16.2538 22.6769 16.2538 22.7425 16.2538V8.17505C22.3096 7.97374 21.916 7.80744 21.5356 7.6105C21.2732 7.47483 21.024 7.43545 20.7704 7.59737C19.6685 8.29759 18.5666 8.30197 17.4603 7.60613C17.2066 7.44858 16.953 7.44858 16.6994 7.60613C15.6019 8.29759 14.5087 8.29759 13.4112 7.60613C13.1575 7.44858 12.9039 7.43982 12.6503 7.59737C11.544 8.29322 10.4421 8.29322 9.34018 7.59737C9.09531 7.4442 8.8417 7.43982 8.6012 7.59737C7.49928 8.29759 6.39736 8.30197 5.29107 7.60175C5.07244 7.46608 4.84943 7.4442 4.61768 7.55361C4.18916 7.75492 3.76063 7.96499 3.29713 8.18381V16.2232H3.27964Z" fill="white"/>
<path d="M1.64844 21.9475H24.3296C24.3296 22.6433 24.3952 23.3304 24.3165 24.0044C24.1853 25.0985 23.1796 25.9431 22.0733 25.9956C21.9727 26 21.8721 25.9956 21.7672 25.9956C15.9253 25.9956 10.0834 25.9956 4.24144 25.9956C2.68476 25.9956 1.64844 24.9584 1.64844 23.4048C1.64844 22.9234 1.64844 22.442 1.64844 21.9431V21.9475Z" fill="white"/>
</g>
<defs>
<clipPath id="clip0_1_485">
<rect width="26" height="26" fill="white"/>
</clipPath>
</defs>
</svg>
