<svg width="19" height="24" viewBox="0 0 19 24" fill="none" xmlns="http://www.w3.org/2000/svg">
<g clip-path="url(#clip0_1_499)">
<path d="M0 24V0.00527053C0.139112 0.00527053 0.260581 0.00527053 0.382049 0.00527053C4.38576 0.00527053 8.38948 0.00724697 12.3932 0C12.6402 0 12.8112 0.0698345 12.9842 0.23915C14.9135 2.12336 16.8536 3.99769 18.7801 5.88454C18.8982 6.00049 18.9905 6.20012 18.9912 6.36087C19.002 12.1354 19 17.9099 19 23.6844V24H0ZM1.89939 22.1593H17.0796V7.38335H11.3889V1.86577H1.89939V22.1593ZM13.3215 3.25982V5.51495H15.6443C14.8701 4.76324 14.0999 4.01548 13.3215 3.25982Z" fill="white"/>
<path d="M8.96558 12.7915C8.99001 12.5886 9.0029 12.2901 9.06397 12.0016C9.3008 10.8862 10.0459 10.2373 11.2158 10.1516C11.5836 10.1246 11.9656 10.1464 12.3273 10.2155C13.103 10.3651 13.6594 10.8072 13.9227 11.5417C14.2376 12.4206 14.2423 13.3107 13.901 14.1842C13.6289 14.8813 13.0969 15.3319 12.3423 15.4617C11.9039 15.5368 11.4357 15.5651 10.9973 15.5052C9.85318 15.3477 9.14744 14.5822 9.01511 13.4424C8.9934 13.2573 8.98661 13.0702 8.96558 12.7915ZM12.9693 12.7862C12.9259 12.5385 12.8994 12.2414 12.818 11.9601C12.6436 11.3579 12.2344 11.0674 11.606 11.0588C10.9586 11.0496 10.5128 11.3375 10.3194 11.9219C10.1362 12.4766 10.128 13.0452 10.2739 13.6091C10.4565 14.3173 10.907 14.6401 11.646 14.6158C12.309 14.594 12.7454 14.2106 12.8756 13.5195C12.9184 13.2942 12.9347 13.0643 12.9693 12.7862Z" fill="white"/>
<path d="M6.15631 13.6975V15.4624H5.02441V10.213C5.95952 10.2584 6.90955 10.0634 7.82566 10.3942C8.45811 10.6221 8.75126 11.1109 8.75194 11.8534C8.75262 12.6453 8.42554 13.2066 7.72387 13.4241C7.23867 13.5743 6.71412 13.6052 6.15631 13.6981V13.6975ZM6.16038 11.1254V12.702C6.65372 12.6882 7.12942 12.7639 7.46125 12.3462C7.64176 12.1183 7.65262 11.6709 7.4755 11.4463C7.13892 11.0213 6.65169 11.1505 6.16106 11.1254H6.16038Z" fill="white"/>
</g>
<defs>
<clipPath id="clip0_1_499">
<rect width="19" height="24" fill="white"/>
</clipPath>
</defs>
</svg>
