<svg width="24" height="24" viewBox="0 0 24 24" fill="none" xmlns="http://www.w3.org/2000/svg">
<path d="M0 6.65418C0 4.92777 0 3.20135 0 1.46813C0 0.536957 0.543754 0 1.47493 0C4.04417 0 6.6202 0 9.18944 0C10.1206 0 10.6712 0.536957 10.6712 1.46813C10.6712 4.93456 10.6712 8.40099 10.6712 11.8674C10.6712 12.7782 10.1274 13.3152 9.20983 13.322C6.627 13.322 4.04417 13.322 1.46813 13.322C0.536957 13.322 0.00679692 12.785 0.00679692 11.8402C0.00679692 10.1138 0.00679692 8.3874 0.00679692 6.65418H0Z" fill="white"/>
<path d="M23.9932 17.9914C23.9932 19.5003 23.9932 21.0093 23.9932 22.5182C23.9932 23.4494 23.4495 23.9863 22.5183 23.9863C19.9491 23.9863 17.3798 23.9863 14.8038 23.9863C13.8726 23.9863 13.3289 23.4494 13.3289 22.5114C13.3289 19.4935 13.3289 16.4757 13.3289 13.4579C13.3289 12.5267 13.8726 11.9897 14.8106 11.9897C17.3798 11.9897 19.9491 11.9897 22.5251 11.9897C23.4563 11.9897 24 12.5267 24 13.4579C24 14.9668 24 16.4757 24 17.9846L23.9932 17.9914Z" fill="white"/>
<path d="M18.6712 9.32538C17.3798 9.32538 16.0884 9.32538 14.797 9.32538C13.859 9.32538 13.322 8.78842 13.322 7.85724C13.322 5.7366 13.322 3.60916 13.322 1.48853C13.322 0.536957 13.8658 0 14.8241 0C17.3866 0 19.9422 0 22.5047 0C23.4562 0 23.9932 0.536957 23.9932 1.48853C23.9932 3.60916 23.9932 5.7366 23.9932 7.85724C23.9932 8.78162 23.463 9.31858 22.5454 9.31858C21.254 9.31858 19.9626 9.31858 18.6712 9.31858V9.32538Z" fill="white"/>
<path d="M5.31519 23.9863C4.02378 23.9863 2.73236 23.9863 1.44095 23.9863C0.550551 23.9863 0 23.4358 0 22.5454C0 20.8394 0 19.1333 0 17.4273C0 16.5369 0.550551 15.9932 1.44095 15.9932C4.03057 15.9932 6.6202 15.9932 9.21662 15.9932C10.107 15.9932 10.6576 16.5369 10.6644 17.4341C10.6644 19.1401 10.6644 20.8462 10.6644 22.5522C10.6644 23.4426 10.107 23.9863 9.21662 23.9863C7.91841 23.9863 6.6134 23.9863 5.31519 23.9863Z" fill="white"/>
</svg>
