<svg width="29" height="22" viewBox="0 0 29 22" fill="none" xmlns="http://www.w3.org/2000/svg">
<g clip-path="url(#clip0_1_480)">
<path d="M10.6066 19.1536C10.2804 16.6862 8.82524 15.2092 6.71334 15.149C4.49413 15.0887 3.06902 16.4451 2.55392 19.1235C1.86283 19.1235 1.16745 19.145 0.472071 19.1149C0.171597 19.102 0.0170679 18.8522 0.00848291 18.5637C-0.00868701 17.8833 -0.00868701 17.203 0.00848291 16.5226C0.0213604 16.1092 0.227399 15.9714 0.858394 15.9197C0.866979 15.7647 0.884149 15.6054 0.884149 15.4461C0.884149 11.1443 0.884149 6.84674 0.884149 2.54492C0.884149 1.27461 1.53231 0.361715 2.64407 0.0818164C2.88874 0.0172245 3.14199 0 3.39096 0C8.10839 0 12.8215 0 17.539 0C18.2902 0 18.4318 0.146408 18.4318 0.904286C18.4318 1.59757 18.4318 2.29086 18.4318 3.04013C18.5735 3.04013 18.6979 3.04013 18.8224 3.04013C20.3806 3.04013 21.9431 3.04874 23.5012 3.04013C24.0335 3.04013 24.4327 3.2339 24.7546 3.66021C25.7548 4.99511 26.7678 6.3257 27.7808 7.65199C28.0813 8.04384 28.2315 8.48307 28.2315 8.97827C28.2315 11.1529 28.2315 13.3275 28.2315 15.5021V15.8853C28.9656 16.0791 29.0042 16.1351 29.0042 16.8886C29.0042 17.4011 29.0085 17.9178 29.0042 18.4302C28.9999 18.934 28.7853 19.145 28.2788 19.1536C27.8152 19.1623 27.3516 19.1493 26.8837 19.158C26.6734 19.1623 26.6004 19.0977 26.5832 18.8781C26.433 16.8886 24.8619 15.2781 22.9733 15.1619C20.8485 15.0327 19.0971 16.359 18.6894 18.4087C18.6808 18.4561 18.6722 18.5034 18.6636 18.5508C18.6064 18.9556 18.3689 19.158 17.9511 19.158C15.6546 19.158 13.3538 19.158 11.0573 19.158C10.9157 19.158 10.774 19.158 10.6109 19.158L10.6066 19.1536ZM19.9342 5.26639V8.65531H25.3985C24.6387 7.62184 23.9305 6.62282 23.1793 5.65825C23.0291 5.46447 22.7243 5.29654 22.4796 5.28362C21.6426 5.23625 20.8013 5.26639 19.9342 5.26639Z" fill="white"/>
<path d="M9.43497 19.1322C9.43927 20.7254 8.16869 22.0044 6.58047 22.0001C5.01372 22.0001 3.73885 20.7254 3.73027 19.158C3.72168 17.5777 5.00513 16.2901 6.58906 16.2944C8.1644 16.2944 9.42639 17.5561 9.43068 19.1365L9.43497 19.1322ZM7.52911 19.1623C7.5377 18.637 7.12133 18.1978 6.59764 18.1934C6.08255 18.1891 5.64471 18.6241 5.64471 19.1451C5.64471 19.6489 6.06108 20.0795 6.5633 20.0968C7.0827 20.114 7.52053 19.692 7.52911 19.1623Z" fill="white"/>
<path d="M25.4544 19.1407C25.4544 20.7211 24.2096 21.9871 22.63 22C21.0503 22.0172 19.7626 20.734 19.7583 19.1493C19.7583 17.5561 21.0289 16.2857 22.6214 16.29C24.1967 16.2944 25.4501 17.5561 25.4544 19.1407ZM22.5785 18.1977C22.0591 18.2192 21.6341 18.6756 21.6599 19.1881C21.6856 19.7048 22.1492 20.1311 22.6557 20.101C23.1622 20.0708 23.57 19.6316 23.5571 19.1321C23.5443 18.6111 23.0936 18.1804 22.5785 18.202V18.1977Z" fill="white"/>
</g>
<defs>
<clipPath id="clip0_1_480">
<rect width="29" height="22" fill="white"/>
</clipPath>
</defs>
</svg>
