<svg width="28" height="31" viewBox="0 0 28 31" fill="none" xmlns="http://www.w3.org/2000/svg">
<g clip-path="url(#clip0_1_503)">
<path d="M7.29238 7.96769C7.21679 7.28247 7.0908 6.63226 7.08576 5.97705C7.06056 4.23148 7.8669 2.85104 9.13688 1.71067C10.0188 0.920415 10.9814 0.260202 12.1909 0.0801442C14.2118 -0.219953 15.9555 0.265204 17.2708 1.91073C17.3262 1.98076 17.4069 2.04578 17.4875 2.07079C18.1477 2.26585 18.5508 2.731 18.823 3.32119C19.1606 4.05143 19.2413 4.83168 19.1959 5.61693C19.1506 6.38218 19.0397 7.14742 18.959 7.95268C19.6898 8.18276 19.6344 8.83797 19.5184 9.43316C19.3874 10.1234 19.1506 10.7986 18.9036 11.4638C18.8079 11.7189 18.5559 11.909 18.3845 12.139C18.3241 12.2141 18.2686 12.3041 18.2384 12.3941C18.1023 12.7792 18.0217 13.1944 17.8251 13.5545C17.5984 13.9746 17.5127 14.3948 17.553 14.8549C17.6135 15.5451 17.4573 16.1503 17.0944 16.7755C16.2578 18.206 16.0613 19.7765 16.404 21.402C16.4443 21.5921 16.409 21.7221 16.2679 21.8672C15.0231 23.0926 13.7935 24.333 12.5436 25.5584C12.0699 26.0235 11.692 26.5487 11.5256 27.1889C11.4652 27.414 11.3241 27.379 11.1729 27.379C9.05624 27.379 6.93961 27.379 4.81794 27.379C3.76971 27.379 2.72147 27.379 1.67323 27.379C0.635077 27.379 0.0101665 26.7537 0.00512695 25.7234C0.00512695 25.0632 0.00512695 24.403 0.00512695 23.7478C0.00512695 22.8025 0.378057 22.0422 1.12896 21.447C3.37158 19.6865 5.75531 18.141 8.31542 16.8656C8.61276 16.7155 8.73875 16.5455 8.69843 16.2254C8.67323 16.0303 8.68835 15.8352 8.69843 15.6402C8.73875 14.7949 8.73371 13.9546 8.25495 13.2044C8.22975 13.1644 8.21967 13.1093 8.19951 13.0593C8.03824 12.6292 7.88706 12.2291 7.58468 11.8339C6.93961 10.9837 6.70779 9.93832 6.67755 8.86798C6.66747 8.43284 6.85898 8.08773 7.29742 7.97769L7.29238 7.96769Z" fill="white"/>
<path d="M19.5636 25.5582C19.8055 25.7783 20.0323 25.9634 20.2339 26.1734C20.7278 26.6786 20.7278 27.4138 20.244 27.894C19.7652 28.3691 19.0193 28.3691 18.5103 27.884C18.3037 27.6839 18.1172 27.4588 17.9409 27.2688C17.5478 27.6589 17.2 28.009 16.807 28.3941C16.9531 28.5292 17.1446 28.6992 17.326 28.8793C17.8501 29.4095 17.8653 30.1597 17.3714 30.6449C16.8674 31.135 16.1316 31.12 15.5924 30.5899C15.0733 30.0847 14.5593 29.5745 14.0553 29.0594C13.4959 28.4892 13.501 27.7889 14.0654 27.2288C15.6579 25.6433 17.2454 24.0627 18.848 22.4872C19.0193 22.3172 19.0546 22.1971 18.9488 21.9621C17.8602 19.5463 18.9992 16.7204 21.4484 15.7051C23.8926 14.6947 26.7098 15.8801 27.6774 18.3209C28.3829 20.1115 27.9142 22.1521 26.488 23.4776C25.1021 24.768 23.0107 25.0981 21.2771 24.2928C21.0503 24.1878 20.9193 24.2028 20.7479 24.3879C20.38 24.778 19.9869 25.1431 19.5636 25.5582ZM23.2677 21.9321C24.3159 21.9371 25.1979 21.0768 25.2029 20.0314C25.208 18.9911 24.3311 18.1158 23.2828 18.1108C22.2296 18.1108 21.3527 18.9711 21.3476 20.0164C21.3426 21.0568 22.2094 21.9321 23.2627 21.9371L23.2677 21.9321Z" fill="white"/>
</g>
<defs>
<clipPath id="clip0_1_503">
<rect width="28" height="31" fill="white"/>
</clipPath>
</defs>
</svg>
