<svg width="16" height="24" viewBox="0 0 16 24" fill="none" xmlns="http://www.w3.org/2000/svg">
<g clip-path="url(#clip0_1_527)">
<path d="M11.3119 0C11.3119 0.745316 11.3119 1.45316 11.3119 2.161C11.3119 2.41083 11.3079 2.65649 11.3119 2.90632C11.3398 4.04303 12.1444 4.87994 13.2357 4.88827C14.1399 4.8966 15.048 4.88827 16 4.88827C16 5.02984 16 5.14643 16 5.26718C16 10.7467 16 16.2304 16 21.7099C16 23.1464 15.1795 23.9917 13.7974 23.9917C9.93378 23.9917 6.0702 23.9917 2.21061 23.9917C0.812547 23.9917 0.00398307 23.1464 0.00398307 21.6766C0 15.2228 0 8.75642 0 2.29424C0 0.84941 0.812547 0 2.19069 0C5.1063 0 8.01792 0 10.9296 0C11.0451 0 11.1606 0 11.3079 0H11.3119ZM8.00199 8.81888C6.54817 8.81888 5.09037 8.81888 3.63654 8.81888C3.52502 8.81888 3.3179 8.84802 3.31392 8.8855C3.27409 9.16863 3.25019 9.4601 3.28205 9.74323C3.29002 9.80569 3.54892 9.87231 3.69629 9.87647C6.53224 9.8848 9.36819 9.88064 12.2041 9.88064C12.5785 9.88064 12.7657 9.68078 12.7657 9.28106C12.7657 9.28106 12.7657 9.26024 12.7657 9.24774C12.7657 8.83137 12.7498 8.81888 12.3396 8.81888C10.8937 8.81888 9.44785 8.81888 8.00597 8.81888H8.00199ZM8.00199 17.8168C9.4598 17.8168 10.9136 17.8168 12.3714 17.8168C12.4829 17.8168 12.6861 17.7876 12.6941 17.746C12.7339 17.4629 12.7578 17.1714 12.7219 16.8883C12.714 16.8258 12.4551 16.7592 12.3077 16.7592C9.47175 16.7509 6.6358 16.755 3.79985 16.755C3.42544 16.755 3.23957 16.9549 3.24222 17.3546C3.24222 17.3754 3.24222 17.4004 3.24222 17.4212C3.20637 17.7335 3.33781 17.8293 3.63654 17.8251C5.09037 17.8126 6.54817 17.821 8.00597 17.821L8.00199 17.8168ZM8.00199 13.8362C9.39208 13.8362 10.7822 13.8362 12.1723 13.8362C12.7817 13.8362 12.7657 13.8362 12.7737 13.1867C12.7737 12.8702 12.6662 12.787 12.3754 12.787C9.45581 12.7953 6.53622 12.7953 3.61265 12.787C3.32985 12.787 3.21036 12.8786 3.24222 13.1742C3.25019 13.2533 3.25417 13.3324 3.24222 13.4115C3.19442 13.7613 3.34976 13.8487 3.66841 13.8446C5.11426 13.8279 6.55614 13.8362 8.00199 13.8362Z" fill="white"/>
<path d="M12.3317 0.570557C13.3792 1.66147 14.4029 2.72739 15.4703 3.83496C15.2831 3.83496 15.1198 3.83496 14.9525 3.83496C14.3829 3.83496 13.8094 3.84328 13.2398 3.83079C12.6702 3.8183 12.3396 3.46438 12.3317 2.87312C12.3237 2.10699 12.3317 1.34502 12.3317 0.570557Z" fill="white"/>
</g>
<defs>
<clipPath id="clip0_1_527">
<rect width="16" height="24" fill="white"/>
</clipPath>
</defs>
</svg>
