<svg width="19" height="26" viewBox="0 0 19 26" fill="none" xmlns="http://www.w3.org/2000/svg">
<g clip-path="url(#clip0_1_477)">
<path d="M0 14.0787C0 11.0708 0 8.0679 0 5.06001C0 3.33335 1.14176 2.1372 2.83 2.13219C3.2301 2.13219 3.44967 2.05212 3.6546 1.63672C4.1718 0.575696 5.06959 0.0251667 6.23087 0.0151571C8.40704 0.00014268 10.5832 -0.00486213 12.7594 0.0151571C14.0329 0.0301716 14.9404 0.675792 15.4625 1.85693C15.5601 2.07714 15.6772 2.10717 15.8821 2.12719C16.3652 2.17223 16.8726 2.18224 17.3215 2.3524C18.3755 2.75279 19 3.78879 19 4.99495C19 9.23903 19 13.4831 19 17.7272C19 19.5039 19 21.2856 19 23.0623C19 24.804 17.8387 26.0001 16.1456 26.0001C11.7152 26.0001 7.28968 26.0001 2.85927 26.0001C1.16615 26.0001 0 24.804 0 23.0673C0 20.0694 0 17.0766 0 14.0787ZM12.1739 8.07791C11.4859 8.07791 10.7979 8.07791 10.1099 8.07791C9.52928 8.07791 9.11942 8.45327 9.10966 8.98878C9.0999 9.53431 9.51464 9.92969 10.105 9.9347C11.481 9.9347 12.857 9.9347 14.2329 9.9347C14.8087 9.9347 15.2137 9.54932 15.2137 9.0088C15.2137 8.46828 14.8087 8.08291 14.2329 8.07791C13.5449 8.07791 12.857 8.07791 12.169 8.07791H12.1739ZM12.1885 13.5832C11.4908 13.5832 10.793 13.5832 10.0953 13.5832C9.51952 13.5832 9.11454 13.9686 9.10966 14.5091C9.10966 15.0446 9.51952 15.44 10.0904 15.44C11.4761 15.44 12.8618 15.44 14.2476 15.44C14.8184 15.44 15.2185 15.0396 15.2137 14.4991C15.2088 13.9736 14.8038 13.5882 14.2476 13.5882C13.5596 13.5882 12.8716 13.5882 12.1836 13.5882L12.1885 13.5832ZM12.1641 19.0885C11.4761 19.0885 10.7881 19.0885 10.1002 19.0885C9.51952 19.0885 9.11454 19.4739 9.11454 20.0094C9.11454 20.5449 9.5244 20.9403 10.0953 20.9403C11.481 20.9403 12.8667 20.9403 14.2476 20.9403C14.8184 20.9403 15.2234 20.5349 15.2185 19.9994C15.2137 19.4739 14.8136 19.0935 14.2524 19.0885C13.5547 19.0885 12.857 19.0885 12.1592 19.0885H12.1641ZM5.66487 14.1538C5.53313 13.9786 5.45506 13.8535 5.35747 13.7534C4.97201 13.368 4.43041 13.358 4.06934 13.7183C3.69851 14.0887 3.70339 14.6542 4.09373 15.0646C4.38649 15.3749 4.68901 15.6802 4.99153 15.9855C5.4209 16.4209 5.93811 16.4309 6.36749 16.0005C6.91885 15.445 7.46533 14.8845 8.00693 14.3189C8.41192 13.8935 8.42167 13.338 8.04109 12.9526C7.67026 12.5772 7.13842 12.5973 6.73344 13.0076C6.39189 13.358 6.06985 13.7183 5.66975 14.1487L5.66487 14.1538ZM5.66487 8.64846C5.54777 8.4883 5.48434 8.3782 5.39651 8.28811C4.98665 7.86771 4.44016 7.83768 4.06934 8.21804C3.68875 8.60341 3.71315 9.16395 4.13765 9.60438C4.42065 9.89966 4.70853 10.1949 4.99641 10.4852C5.42578 10.9206 5.94299 10.9307 6.37237 10.4952C6.92373 9.9397 7.47021 9.37916 8.01181 8.81362C8.4168 8.38821 8.42655 7.83267 8.04109 7.4473C7.67026 7.07194 7.13842 7.09196 6.73344 7.50736C6.39676 7.8577 6.06985 8.21804 5.66487 8.64345V8.64846ZM6.96764 20.0094C6.96764 19.4939 6.5773 19.0935 6.07473 19.0885C5.57704 19.0885 5.17206 19.4939 5.1623 19.9994C5.15254 20.5049 5.5868 20.9503 6.07961 20.9453C6.57242 20.9403 6.97252 20.5199 6.96764 20.0144V20.0094Z" fill="white"/>
</g>
<defs>
<clipPath id="clip0_1_477">
<rect width="19" height="26" fill="white"/>
</clipPath>
</defs>
</svg>
