<svg width="29" height="26" viewBox="0 0 29 26" fill="none" xmlns="http://www.w3.org/2000/svg">
<g clip-path="url(#clip0_1_494)">
<path d="M5.35608 12.3871C5.47385 12.2753 5.58725 12.1635 5.70501 12.0603C6.24148 11.5917 7.02656 11.6132 7.51942 12.1076C8.01664 12.6064 8.04281 13.3803 7.53686 13.892C6.65583 14.7906 5.76171 15.672 4.85887 16.5492C4.33548 17.0565 3.54604 17.0436 3.02701 16.532C2.14162 15.6677 1.26058 14.7949 0.392632 13.9178C-0.126394 13.3932 -0.122032 12.615 0.383909 12.1076C0.885488 11.6046 1.67929 11.5874 2.22012 12.0732C2.34661 12.1893 2.45565 12.3269 2.62575 12.5118C2.67809 12.0388 2.70426 11.6519 2.76968 11.2692C3.68997 5.86454 6.77795 2.21413 12.0772 0.575966C19.5093 -1.72005 27.3514 3.06546 28.7777 10.6286C30.1079 17.6757 25.3538 24.5379 18.214 25.7719C13.7608 26.5416 9.86158 25.3334 6.57732 22.2591C5.99723 21.7174 5.9667 20.9176 6.49009 20.3845C7.00912 19.8556 7.82037 19.8513 8.39609 20.406C9.88338 21.8248 11.628 22.7622 13.6518 23.1921C18.4626 24.2155 23.474 21.7045 25.4585 17.2629C28.215 11.0972 24.5208 4.10168 17.8214 2.79029C12.0642 1.66378 6.39414 5.52917 5.42587 11.2477C5.36481 11.6175 5.32555 11.9872 5.27758 12.357C5.30375 12.3656 5.32992 12.3785 5.36045 12.3871H5.35608Z" fill="white"/>
<path d="M15.8149 13.0149C15.9588 13.0149 16.0679 13.0149 16.1769 13.0149C17.8038 13.0149 19.4306 13.0063 21.0575 13.0149C22.0912 13.0192 22.728 14.0555 22.2395 14.924C21.9865 15.3712 21.5809 15.5947 21.0706 15.599C18.8855 15.6076 16.7047 15.6119 14.5195 15.599C13.7345 15.5947 13.1936 15.0573 13.1893 14.2876C13.1762 12.1335 13.1762 9.98369 13.1893 7.82956C13.1936 7.06422 13.7955 6.49667 14.5239 6.51817C15.261 6.53537 15.8106 7.10722 15.8106 7.87686C15.8106 9.47203 15.8106 11.0629 15.8106 12.6581C15.8106 12.7656 15.8106 12.8774 15.8106 13.0149H15.8149Z" fill="white"/>
</g>
<defs>
<clipPath id="clip0_1_494">
<rect width="29" height="26" fill="white"/>
</clipPath>
</defs>
</svg>
