<svg width="33" height="35" viewBox="0 0 33 35" fill="none" xmlns="http://www.w3.org/2000/svg">
<path d="M15.1269 8.10862C15.0767 8.04211 15.0516 8.00054 15.0181 7.96729C14.332 7.25233 14.4408 6.41266 15.3193 5.9471C16.0974 5.53142 16.9091 5.53974 17.6705 6.0053C18.4486 6.47917 18.5323 7.27727 17.9047 7.93404C17.8629 7.9756 17.8211 8.02549 17.7876 8.06705C18.6662 8.24995 19.5363 8.39128 20.3814 8.62406C25.6946 10.1039 29.6941 14.7345 30.3802 20.1633C30.4304 20.529 30.4555 20.8948 30.4889 21.2606C30.5391 21.801 30.3718 21.9756 29.8196 21.9756C25.9707 21.9756 22.1218 21.9756 18.2813 21.9756C13.2694 21.9756 8.24907 21.9756 3.23715 21.9756C2.51758 21.9756 2.39207 21.8758 2.45064 21.1443C2.78533 16.8046 4.7014 13.3212 8.2156 10.7274C10.2153 9.24758 12.4828 8.41622 14.9595 8.14187C15.0097 8.14187 15.0516 8.12525 15.1352 8.10031L15.1269 8.10862ZM15.7293 12.2488C15.7293 11.5255 15.0767 11.0184 14.3152 11.2428C13.42 11.5089 12.5079 11.7832 11.6796 12.1989C9.65475 13.2131 8.14866 14.7761 7.13624 16.7963C6.83502 17.3948 7.01073 18.0267 7.54623 18.2927C8.08173 18.5587 8.68416 18.3343 9.01048 17.7357C9.09415 17.5861 9.16946 17.4281 9.25313 17.2868C10.5249 15.1502 12.3908 13.8366 14.8173 13.2963C15.3695 13.1716 15.7209 12.7725 15.7293 12.2571V12.2488Z" fill="white"/>
<path d="M16.5244 26.7557C11.5376 26.7557 6.55074 26.7557 1.56392 26.7557C0.743942 26.7557 0.200078 26.3733 0.0411021 25.6999C-0.176444 24.7771 0.492928 23.9873 1.49698 23.9873C3.76448 23.9873 6.03197 23.9873 8.29947 23.9873C15.9889 23.9873 23.6866 23.9873 31.376 23.9873C32.3132 23.9873 32.8821 24.4446 32.9825 25.2759C33.0662 25.9742 32.5809 26.6227 31.8781 26.7225C31.6856 26.7474 31.4848 26.7474 31.284 26.7474C26.3641 26.7474 21.4442 26.7474 16.5244 26.7474V26.7557Z" fill="white"/>
</svg>
