<svg width="74" height="74" viewBox="0 0 74 74" fill="none" xmlns="http://www.w3.org/2000/svg">
<g clip-path="url(#clip0_1_373)">
<path d="M33.1035 39.2546C31.8778 40.4802 31.2997 42.2377 31.5541 43.9605L35.8553 73.0171C35.9363 73.5836 36.4219 73.9999 37 73.9999C37.5782 73.9999 38.0638 73.5836 38.1447 73.0171L42.446 43.9605C42.7003 42.2493 42.1222 40.4918 40.8966 39.2546C38.746 37.1039 35.2541 37.1039 33.1035 39.2546Z" fill="#F55E66"/>
<path d="M30.0625 25.4375C30.0625 25.9694 30.4209 26.4319 30.9413 26.5591C33.3809 27.1719 35.2772 29.0566 35.8784 31.4963C36.0056 32.0166 36.4681 32.375 37 32.375C37.5319 32.375 37.9944 32.0166 38.1216 31.4963C38.7344 29.0566 40.6306 27.1603 43.0588 26.5591C43.5791 26.4319 43.9375 25.9694 43.9375 25.4375C43.9375 24.9056 43.5791 24.4431 43.0588 24.3159C40.6191 23.7031 38.7344 21.8184 38.1216 19.3788C37.9944 18.87 37.5319 18.5 37 18.5C36.4681 18.5 36.0056 18.8584 35.8784 19.3788C35.2656 21.8184 33.3809 23.7147 30.9413 24.3159C30.4209 24.4431 30.0625 24.9056 30.0625 25.4375Z" fill="#60BA62"/>
<path d="M0.520312 7.89719L0.948125 8.18625C2.69406 9.35406 4.02375 11.0884 4.69438 13.0887C4.85625 13.5628 5.29563 13.875 5.79281 13.875C6.29 13.875 6.72937 13.5512 6.89125 13.0887C7.56187 11.1 8.89156 9.35406 10.6375 8.18625L11.0653 7.89719C11.3891 7.6775 11.5856 7.31906 11.5856 6.9375C11.5856 6.55594 11.3891 6.18594 11.0653 5.97781L10.6375 5.68875C8.89156 4.52094 7.56187 2.78656 6.89125 0.78625C6.72937 0.312188 6.29 0 5.79281 0C5.29563 0 4.85625 0.32375 4.69438 0.78625C4.02375 2.775 2.69406 4.52094 0.948125 5.68875L0.520312 5.97781C0.196562 6.1975 0 6.55594 0 6.9375C0 7.31906 0.196562 7.68906 0.520312 7.89719Z" fill="#F55E66"/>
<path d="M62.9578 17.1472L63.3856 17.4362C65.1316 18.6041 66.4613 20.3384 67.1319 22.3387C67.2938 22.8128 67.7331 23.125 68.2303 23.125C68.7275 23.125 69.1669 22.8012 69.3287 22.3387C69.9994 20.35 71.3291 18.6041 73.075 17.4362L73.5028 17.1472C73.8266 16.9275 74.0231 16.5691 74.0231 16.1875C74.0231 15.8059 73.8266 15.4359 73.5028 15.2278L73.075 14.9388C71.3291 13.7709 69.9994 12.0366 69.3287 10.0363C69.1669 9.56219 68.7275 9.25 68.2303 9.25C67.7331 9.25 67.2938 9.57375 67.1319 10.0363C66.4613 12.025 65.1316 13.7709 63.3856 14.9388L62.9578 15.2278C62.6341 15.4475 62.4375 15.8059 62.4375 16.1875C62.4375 16.5691 62.6341 16.9391 62.9578 17.1472Z" fill="#F55E66"/>
<path d="M37 16.1875C37.6359 16.1875 38.1562 15.6672 38.1562 15.0312V1.15625C38.1562 0.520312 37.6359 0 37 0C36.3641 0 35.8438 0.520312 35.8438 1.15625V15.0312C35.8438 15.6672 36.3641 16.1875 37 16.1875Z" fill="#FFE094"/>
<path d="M28.8253 18.8931C29.0566 19.1243 29.3456 19.2284 29.6462 19.2284C29.9469 19.2284 30.2359 19.1128 30.4672 18.8931C30.9181 18.4421 30.9181 17.7137 30.4672 17.2628L23.9459 10.7415C23.495 10.2906 22.7666 10.2906 22.3156 10.7415C21.8647 11.1925 21.8647 11.9209 22.3156 12.3718L28.8369 18.8931H28.8253Z" fill="#FFE094"/>
<path d="M12.7188 26.5938H26.5938C27.2297 26.5938 27.75 26.0734 27.75 25.4375C27.75 24.8016 27.2297 24.2812 26.5938 24.2812H12.7188C12.0828 24.2812 11.5625 24.8016 11.5625 25.4375C11.5625 26.0734 12.0828 26.5938 12.7188 26.5938Z" fill="#FFE094"/>
<path d="M46.25 25.4375C46.25 26.0734 46.7703 26.5938 47.4062 26.5938H61.2812C61.9172 26.5938 62.4375 26.0734 62.4375 25.4375C62.4375 24.8016 61.9172 24.2812 61.2812 24.2812H47.4062C46.7703 24.2812 46.25 24.8016 46.25 25.4375Z" fill="#FFE094"/>
<path d="M30.4556 31.9818C30.0047 31.5308 29.2763 31.5308 28.8253 31.9818L25.7728 35.0343C25.3219 35.4852 25.3219 36.2136 25.7728 36.6646C26.0041 36.8958 26.2931 36.9999 26.5938 36.9999C26.8944 36.9999 27.1835 36.8843 27.4147 36.6646L30.4672 33.6121C30.9181 33.1611 30.9181 32.4327 30.4672 31.9818H30.4556Z" fill="#FFE094"/>
<path d="M44.3653 19.2401C44.6659 19.2401 44.955 19.1245 45.1862 18.9048L51.7075 12.3836C52.1584 11.9326 52.1584 11.2042 51.7075 10.7532C51.2565 10.3023 50.5281 10.3023 50.0772 10.7532L43.5559 17.2745C43.105 17.7254 43.105 18.4539 43.5559 18.9048C43.7872 19.1361 44.0762 19.2401 44.3769 19.2401H44.3653Z" fill="#FFE094"/>
<path d="M22.5816 52.0312H22.3272C20.2344 52.0312 18.4075 53.4534 17.8987 55.4884C17.4709 57.1766 18.0375 58.9341 19.3556 60.0672C23.4719 63.5938 26.7787 68.0916 28.9062 73.075L29.0103 73.3063C29.1953 73.7341 29.6116 74.0116 30.0741 74.0116C30.1319 74.0116 30.1897 74.0116 30.2475 74C30.7678 73.9191 31.1725 73.5028 31.2303 72.9825L31.2997 72.3697C32.0281 65.7559 30.2359 59.1884 26.2469 53.8697C25.3912 52.725 24.0269 52.0428 22.5931 52.0428L22.5816 52.0312Z" fill="#F55E66"/>
<path d="M13.875 53.1876C14.1756 53.1876 14.4647 53.072 14.6959 52.8523L18.1647 49.3836C18.6156 48.9326 18.6156 48.2042 18.1647 47.7532L14.6959 44.2845C14.245 43.8336 13.5166 43.8336 13.0656 44.2845L9.59687 47.7532C9.14593 48.2042 9.14593 48.9326 9.59687 49.3836L13.0656 52.8523C13.2969 53.0836 13.5859 53.1876 13.8866 53.1876H13.875Z" fill="#60BA62"/>
<path d="M12.7188 35.8438V39.3125C12.7188 39.9484 13.2391 40.4688 13.875 40.4688C14.5109 40.4688 15.0312 39.9484 15.0312 39.3125V35.8438C15.0312 35.2078 14.5109 34.6875 13.875 34.6875C13.2391 34.6875 12.7188 35.2078 12.7188 35.8438Z" fill="#FFE094"/>
<path d="M4.05842 38.7459C3.60748 39.1969 3.60748 39.9253 4.05842 40.3762L7.33061 43.6484C7.56186 43.8797 7.85092 43.9837 8.15154 43.9837C8.45217 43.9837 8.74123 43.8681 8.97248 43.6484C9.42342 43.1975 9.42342 42.469 8.97248 42.0181L5.70029 38.7459C5.24936 38.295 4.52092 38.295 4.06998 38.7459H4.05842Z" fill="#FFE094"/>
<path d="M5.78125 48.5625C5.78125 47.9266 5.26094 47.4062 4.625 47.4062H1.15625C0.520312 47.4062 0 47.9266 0 48.5625C0 49.1984 0.520312 49.7188 1.15625 49.7188H4.625C5.26094 49.7188 5.78125 49.1984 5.78125 48.5625Z" fill="#FFE094"/>
<path d="M7.33061 53.4652L4.05842 56.7373C3.60748 57.1883 3.60748 57.9167 4.05842 58.3677C4.28967 58.5989 4.57873 58.703 4.87936 58.703C5.17998 58.703 5.46904 58.5873 5.70029 58.3677L8.97248 55.0955C9.42342 54.6445 9.42342 53.9161 8.97248 53.4652C8.52154 53.0142 7.79311 53.0142 7.34217 53.4652H7.33061Z" fill="#FFE094"/>
<path d="M13.875 56.6562C13.2391 56.6562 12.7188 57.1766 12.7188 57.8125V61.2812C12.7188 61.9172 13.2391 62.4375 13.875 62.4375C14.5109 62.4375 15.0312 61.9172 15.0312 61.2812V57.8125C15.0312 57.1766 14.5109 56.6562 13.875 56.6562Z" fill="#FFE094"/>
<path d="M23.125 49.7188H26.5938C27.2297 49.7188 27.75 49.1984 27.75 48.5625C27.75 47.9266 27.2297 47.4062 26.5938 47.4062H23.125C22.4891 47.4062 21.9688 47.9266 21.9688 48.5625C21.9688 49.1984 22.4891 49.7188 23.125 49.7188Z" fill="#FFE094"/>
<path d="M23.6916 38.7459C23.2406 38.295 22.5122 38.295 22.0613 38.7459L18.7891 42.0181C18.3381 42.469 18.3381 43.1975 18.7891 43.6484C19.0203 43.8797 19.3094 43.9837 19.61 43.9837C19.9106 43.9837 20.1997 43.8681 20.4309 43.6484L23.7031 40.3762C24.1541 39.9253 24.1541 39.1969 23.7031 38.7459H23.6916Z" fill="#FFE094"/>
<path d="M48.2272 36.6646C48.6781 36.2136 48.6781 35.4852 48.2272 35.0343L45.1747 31.9818C44.7238 31.5308 43.9953 31.5308 43.5444 31.9818C43.0934 32.4327 43.0934 33.1611 43.5444 33.6121L46.5969 36.6646C46.8281 36.8958 47.1172 36.9999 47.4178 36.9999C47.7184 36.9999 48.0075 36.8843 48.2388 36.6646H48.2272Z" fill="#FFE094"/>
<path d="M51.6844 52.0311H51.43C49.9963 52.0311 48.6319 52.7133 47.7763 53.858C43.7872 59.1767 41.995 65.7558 42.7234 72.358L42.7928 72.9708C42.8506 73.4911 43.2553 73.9073 43.7756 73.9883C43.8334 73.9883 43.8913 73.9998 43.9491 73.9998C44.4116 73.9998 44.8278 73.7339 45.0128 73.2945L45.1169 73.0633C47.2559 68.0798 50.5513 63.582 54.6675 60.0555C55.9856 58.9223 56.5522 57.1764 56.1244 55.4767C55.6156 53.4417 53.7888 52.0195 51.6959 52.0195L51.6844 52.0311Z" fill="#F55E66"/>
<path d="M64.4147 47.7415L60.9459 44.2728C60.495 43.8218 59.7666 43.8218 59.3156 44.2728L55.8469 47.7415C55.3959 48.1925 55.3959 48.9209 55.8469 49.3718L59.3156 52.8406C59.5469 53.0718 59.8359 53.1759 60.1366 53.1759C60.4372 53.1759 60.7262 53.0603 60.9575 52.8406L64.4262 49.3718C64.8772 48.9209 64.8772 48.1925 64.4262 47.7415H64.4147Z" fill="#60BA62"/>
<path d="M58.9688 35.8438V39.3125C58.9688 39.9484 59.4891 40.4688 60.125 40.4688C60.7609 40.4688 61.2812 39.9484 61.2812 39.3125V35.8438C61.2812 35.2078 60.7609 34.6875 60.125 34.6875C59.4891 34.6875 58.9688 35.2078 58.9688 35.8438Z" fill="#FFE094"/>
<path d="M68.2997 38.7459L65.0275 42.0181C64.5766 42.469 64.5766 43.1975 65.0275 43.6484C65.2588 43.8797 65.5478 43.9837 65.8485 43.9837C66.1491 43.9837 66.4382 43.8681 66.6694 43.6484L69.9416 40.3762C70.3925 39.9253 70.3925 39.1969 69.9416 38.7459C69.4907 38.295 68.7622 38.295 68.3113 38.7459H68.2997Z" fill="#FFE094"/>
<path d="M72.8438 47.4062H69.375C68.7391 47.4062 68.2188 47.9266 68.2188 48.5625C68.2188 49.1984 68.7391 49.7188 69.375 49.7188H72.8438C73.4797 49.7188 74 49.1984 74 48.5625C74 47.9266 73.4797 47.4062 72.8438 47.4062Z" fill="#FFE094"/>
<path d="M66.6694 53.4652C66.2184 53.0142 65.49 53.0142 65.0391 53.4652C64.5881 53.9161 64.5881 54.6445 65.0391 55.0955L68.3113 58.3677C68.5425 58.5989 68.8316 58.703 69.1322 58.703C69.4328 58.703 69.7219 58.5873 69.9531 58.3677C70.4041 57.9167 70.4041 57.1883 69.9531 56.7373L66.6809 53.4652H66.6694Z" fill="#FFE094"/>
<path d="M60.125 56.6562C59.4891 56.6562 58.9688 57.1766 58.9688 57.8125V61.2812C58.9688 61.9172 59.4891 62.4375 60.125 62.4375C60.7609 62.4375 61.2812 61.9172 61.2812 61.2812V57.8125C61.2812 57.1766 60.7609 56.6562 60.125 56.6562Z" fill="#FFE094"/>
<path d="M47.4062 49.7188H50.875C51.5109 49.7188 52.0312 49.1984 52.0312 48.5625C52.0312 47.9266 51.5109 47.4062 50.875 47.4062H47.4062C46.7703 47.4062 46.25 47.9266 46.25 48.5625C46.25 49.1984 46.7703 49.7188 47.4062 49.7188Z" fill="#FFE094"/>
<path d="M54.4016 43.9954C54.7022 43.9954 54.9913 43.8798 55.2225 43.6601C55.6734 43.2092 55.6734 42.4808 55.2225 42.0298L51.9503 38.7576C51.4994 38.3067 50.771 38.3067 50.32 38.7576C49.8691 39.2086 49.8691 39.937 50.32 40.3879L53.5922 43.6601C53.8234 43.8914 54.1125 43.9954 54.4131 43.9954H54.4016Z" fill="#FFE094"/>
</g>
<defs>
<clipPath id="clip0_1_373">
<rect width="74" height="74" fill="white"/>
</clipPath>
</defs>
</svg>
